<?xml version="1.0" encoding="UTF-8"?>
<svg width="120px" height="120px" viewBox="0 0 120 120" version="1.1" xmlns="http://www.w3.org/2000/svg" xmlns:xlink="http://www.w3.org/1999/xlink">
    <!-- Generator: Sketch 51 (57462) - http://www.bohemiancoding.com/sketch -->
    <title>hpi_good</title>
    <desc>Created with Sketch.</desc>
    <defs></defs>
    <g id="hpi_good" stroke="none" stroke-width="1" fill="none" fill-rule="evenodd">
        <g id="Simpsons_Donut">
            <path d="M60,0 C26.86,0 0,26.86 0,60 C0,93.14 26.86,120 60,120 C93.14,120 120,93.14 120,60 C120,26.86 93.14,0 60,0 Z M60,79.77 C49.08,79.77 40.23,70.92 40.23,60 C40.23,49.08 49.08,40.24 60,40.24 C70.92,40.24 79.77,49.09 79.77,60 C79.77,70.92 70.92,79.77 60,79.77 Z" id="Shape" fill="#FFAE00" fill-rule="nonzero"></path>
            <path d="M112.57,47.48 C111.16,46.23 112.06,44.71 112.25,43.27 C112.96,37.63 111.09,33.71 106.12,31.43 C104.26,30.58 103.33,29.44 102.48,27.71 C97.97,18.53 88.55,14.47 81.47,7.96 C80.63,7.19 78.9,7.43 77.64,7.05 C70.58,4.94 63.34,7.03 55.95,5.34 C46.12,3.09 37.24,9.01 28.91,14.23 C28.78,14.31 28.67,14.47 28.6,14.61 C26.88,18.22 23.61,19.77 20.13,21.12 C17.63,22.09 14.58,23.24 14.37,26.1 C13.89,32.69 10.85,37.91 7.16,43.06 C5.64,45.19 5.13,47.97 5.3,50.7 C5.42,52.56 5.43,54.44 4.57,56.09 C2.93,59.23 3.62,62.28 4.91,65.18 C5.68,66.92 6.06,68.61 6.16,70.45 C6.44,75.44 8.31,79.59 12,83.14 C14.96,85.99 17.8,89.13 19.95,92.61 C23.66,98.61 26.94,104.68 35.32,104.72 C36.41,104.73 37.56,106.02 38.56,106.86 C43.87,111.3 49.16,115.31 56.88,112.93 C60.16,111.92 63.46,113.18 66.35,115.11 C69.41,115.23 72.45,115.1 75.43,114.28 C77.36,113.32 79.4,112.54 81.2,111.37 C84.33,109.32 88.86,108.9 90.29,104.89 C91.69,100.96 94.4,98.5 97.74,96.58 C102.3,93.96 104.64,89.88 107.08,85.35 C110.32,79.33 112.62,73.06 114.12,66.56 C115.56,60.19 119.18,53.34 112.57,47.48 Z M82.52,55.61 C82.43,57 81.82,58.32 81.08,59.63 C80.96,60.03 80.75,60.31 80.49,60.36 L79.11,65.75 C82.21,70.25 82.06,78.02 76.72,80.8 C72.45,83.02 68.07,81.96 63.72,81.92 C63.69,81.95 63.66,81.98 63.64,81.98 C63.43,82.05 63.21,82.1 63,82.16 C62.94,82.33 62.87,82.44 62.8,82.44 C57.49,84.07 51.87,84.95 46.6,83.67 C40.44,82.16 35.32,72.87 35.82,66.03 C36.1,62.21 36.02,58.26 37.03,54.63 C38.68,48.66 41.25,43.27 46.8,40.42 C48.08,39.66 49.52,39.04 51.17,38.61 C55.58,37.44 59.49,35.75 64.59,36.32 C73.66,37.31 79.85,47.26 82,50.95 C82.54,51.4 82.91,52.44 82.91,53.64 C82.92,54.4 82.76,55.09 82.52,55.61 Z" id="Shape" fill="#8F62FC"></path>
            <path d="M84.78,96.3 C84.39,98.76 83.24,100.6 80.68,101.23 C79.39,101.55 77.85,101.85 77.12,100.52 C76.09,98.63 78.04,98.43 79.1,98.01 C80.47,97.46 81.09,96.57 81.37,95.16 C81.58,94.13 82.37,93.42 83.55,93.87 C84.63,94.28 84.82,95.26 84.78,96.3 Z M32.66,96.03 C32.57,97.29 33.47,97.85 34.51,97.76 C35.94,97.63 36.97,97.97 37.89,99.13 C38.6,100.03 39.34,101.84 40.86,100.31 C41.93,99.23 41.2,97.84 40.53,96.69 C39.2,94.42 37.11,93.84 34.64,94.16 C33.64,94.42 32.75,94.87 32.66,96.03 Z M14.66,65.57 C15.8,65.02 15.83,63.96 15.23,63.1 C14.4,61.93 14.18,60.87 14.72,59.49 C15.14,58.43 16.34,56.88 14.26,56.33 C12.79,55.94 11.95,57.27 11.3,58.42 C10,60.71 10.54,62.81 12.06,64.78 C12.78,65.53 13.62,66.07 14.66,65.57 Z M36.18,24.93 C37.26,25.57 38.17,25.01 38.55,24.04 C39.07,22.7 39.83,21.93 41.28,21.62 C42.4,21.38 44.35,21.53 43.66,19.49 C43.17,18.05 41.6,18.09 40.27,18.18 C37.64,18.36 36.19,19.98 35.39,22.33 C35.17,23.34 35.18,24.34 36.18,24.93 Z M79.7,27.46 C79.76,28.72 80.73,29.17 81.75,28.94 C83.16,28.63 84.22,28.84 85.27,29.88 C86.08,30.68 87.04,32.39 88.36,30.69 C89.29,29.49 88.39,28.19 87.59,27.14 C85.99,25.05 83.84,24.73 81.43,25.35 C80.47,25.75 79.64,26.31 79.7,27.46 Z M103.96,67.07 C105.1,66.53 105.14,65.46 104.54,64.6 C103.71,63.42 103.49,62.36 104.05,60.99 C104.48,59.93 105.68,58.39 103.6,57.82 C102.13,57.43 101.28,58.76 100.63,59.9 C99.32,62.18 99.86,64.29 101.36,66.27 C102.07,67.03 102.91,67.57 103.96,67.07 Z" id="Shape" fill="#62A643"></path>
            <path d="M54.74,22.02 C54.69,19.53 55.5,17.52 57.91,16.45 C59.12,15.91 60.59,15.34 61.54,16.52 C62.89,18.2 61.01,18.74 60.04,19.34 C58.78,20.12 58.34,21.11 58.31,22.54 C58.29,23.59 57.63,24.43 56.39,24.19 C55.24,23.99 54.89,23.05 54.74,22.02 Z M89.35,45.36 C89.29,46.62 90.21,47.16 91.25,47.03 C92.68,46.86 93.71,47.16 94.67,48.3 C95.4,49.18 96.2,50.97 97.67,49.4 C98.71,48.29 97.94,46.92 97.24,45.79 C95.85,43.56 93.74,43.04 91.28,43.43 C90.28,43.72 89.41,44.2 89.35,45.36 Z M94.48,90.54 C95.63,90.02 95.69,88.96 95.11,88.09 C94.31,86.89 94.12,85.83 94.7,84.47 C95.15,83.42 96.4,81.9 94.32,81.29 C92.86,80.86 91.98,82.17 91.3,83.3 C89.93,85.55 90.42,87.67 91.88,89.68 C92.59,90.44 93.42,91.01 94.48,90.54 Z M29.82,84.57 C30.6,83.57 30.15,82.6 29.23,82.11 C27.96,81.43 27.29,80.58 27.17,79.1 C27.08,77.96 27.46,76.04 25.35,76.47 C23.86,76.77 23.7,78.34 23.63,79.67 C23.48,82.3 24.9,83.94 27.14,85.04 C28.11,85.37 29.1,85.48 29.82,84.57 Z M22.21,37.67 C22.03,38.92 22.9,39.54 23.95,39.51 C25.39,39.47 26.39,39.88 27.23,41.1 C27.88,42.04 28.5,43.9 30.12,42.48 C31.26,41.48 30.62,40.03 30.03,38.85 C28.85,36.49 26.8,35.78 24.32,35.93 C23.29,36.13 22.37,36.52 22.21,37.67 Z" id="Shape" fill="#FFFFFF"></path>
        </g>
    </g>
</svg>