<?xml version="1.0" encoding="UTF-8"?>
<svg width="8px" height="8px" viewBox="0 0 8 8" version="1.1" xmlns="http://www.w3.org/2000/svg" xmlns:xlink="http://www.w3.org/1999/xlink">
    <!-- Generator: Sketch 51 (57462) - http://www.bohemiancoding.com/sketch -->
    <title>5.3</title>
    <desc>Created with Sketch.</desc>
    <defs></defs>
    <g id="5.3" stroke="none" stroke-width="1" fill="none" fill-rule="evenodd">
        <path d="M1.09369788,1.79218307 C1.06651844,2.37262449 1.48326927,2.6213851 1.95437882,2.56149827 C2.60215448,2.48318473 3.0687342,2.6213851 3.50360458,3.14654638 C3.83428724,3.551934 4.19667924,4.3765293 4.86257451,3.65328088 C5.33368412,3.1419397 4.98488179,2.5108248 4.66778879,1.9902702 C4.03813274,0.962981095 3.08232386,0.72343385 1.96796854,0.903094269 C1.51497854,1.0366879 1.12087727,1.25780843 1.09369788,1.79218307 Z" id="Path" fill="#CB1200" fill-rule="nonzero" transform="translate(3.092438, 2.394281) rotate(-71.000000) translate(-3.092438, -2.394281) "></path>
        <path d="M3.42904657,4.17557459 C3.40186713,4.75601602 3.81861796,5.00477662 4.28972751,4.94488979 C4.93750317,4.86657625 5.40408289,5.00477662 5.83895327,5.5299379 C6.16963593,5.93532553 6.53202793,6.75992082 7.1979232,6.03667241 C7.66903281,5.52533122 7.32023048,4.89421633 7.00313748,4.37366172 C6.37348143,3.34637262 5.41767255,3.10682537 4.30331723,3.28648579 C3.85032723,3.42007942 3.45622596,3.64119995 3.42904657,4.17557459 Z" id="Path" fill="#CB1200" fill-rule="nonzero" transform="translate(5.427787, 4.777673) rotate(-282.000000) translate(-5.427787, -4.777673) "></path>
    </g>
</svg>